PathFileType	4	(X/Y/Z)	./resultDataOpenSim/trcMotMarkerGrf/sub10/qtm-13-06.trc
DataRate	CameraRate	NumFrames	NumMarkers	Units	OrigDataRate	OrigDataStartFrame	OrigNumFrames
250.000000	250.000000	9	24	m	250.000000	385	513
Frame#	Time	L.Toe.Tip			R.Toe.Tip			L.Ankle.Lat			R.Ankle.Lat			L.Ankle.Med			R.Ankle.Med			L.Heel			R.Heel			L.Knee.Lat			R.Knee.Lat			L.Knee.Med			R.Knee.Med			L.Thigh.Upper			R.Thigh.Upper			L.ASIS			R.ASIS			V.Sacral			L.Acromium			R.Acromium			C7			L.Elbow			R.Elbow			L.Wrist.Lat			R.Wrist.Lat
		X1	Y1	Z1	X2	Y2	Z2	X3	Y3	Z3	X4	Y4	Z4	X5	Y5	Z5	X6	Y6	Z6	X7	Y7	Z7	X8	Y8	Z8	X9	Y9	Z9	X10	Y10	Z10	X11	Y11	Z11	X12	Y12	Z12	X13	Y13	Z13	X14	Y14	Z14	X15	Y15	Z15	X16	Y16	Z16	X17	Y17	Z17	X18	Y18	Z18	X19	Y19	Z19	X20	Y20	Z20	X21	Y21	Z21	X22	Y22	Z22	X23	Y23	Z23	X24	Y24	Z24

385	1.536	0.90002849	0.066709184	-0.17977747	0.94479008	0.038462285	0.0039845969	0.79838118	0.15289322	-0.21021756	0.80309275	0.06119969	0.050101958	0.81891359	0.16426578	-0.12548329	0.82296455	0.090771423	-0.031802943	0.72500023	0.15232771	-0.16953771	0.75062606	0.04131772	0.0044264054	1.0109653	0.47355575	-0.20455342	0.8768697	0.46044372	0.095307829	1.0280243	0.44035167	-0.086499473	0.88329627	0.46301032	-0.033374479	0.91801412	0.84406296	-0.23239499	0.8911054	0.87667122	0.14956243	0.96587714	0.95612203	-0.16538068	0.96654849	0.96483118	0.077986969	0.76489824	0.97884567	-0.054016718	0.90064427	1.438638	-0.19191543	0.86350029	1.4304744	0.12970715	0.80197478	1.4603166	-0.042695146	0.80082702	1.1135726	-0.27573578	0.7976077	1.0797638	0.1867411	0.93541502	0.91407963	-0.32300814	0.97257593	0.93064875	0.28058227
386	1.54	0.91710609	0.065320452	-0.17972335	0.94494366	0.038418552	0.0039531396	0.81303572	0.14868231	-0.20978708	0.80295633	0.061397699	0.049940603	0.83309765	0.16059912	-0.12500054	0.82323171	0.09097016	-0.031972018	0.73934934	0.14633236	-0.16878179	0.75071208	0.041667083	0.0041056151	1.0192326	0.47419267	-0.2042063	0.87828748	0.46046615	0.095350317	1.0361117	0.44124625	-0.086206335	0.88521903	0.46300174	-0.033333953	0.92389053	0.84398953	-0.23253177	0.89392855	0.87647791	0.14951261	0.97133275	0.95604077	-0.16511346	0.97035704	0.96481269	0.07866761	0.76940996	0.97858266	-0.055132761	0.90516095	1.4383624	-0.19214226	0.86816684	1.4304108	0.12956644	0.80652474	1.4601984	-0.042844796	0.80448741	1.1135275	-0.27525097	0.80527539	1.0792764	0.18822307	0.93734231	0.91310191	-0.32319844	0.98241573	0.93202353	0.28069326
387	1.544	0.93426628	0.064078269	-0.17968151	0.94507343	0.03838801	0.0039310548	0.82779349	0.1444672	-0.20935139	0.80286012	0.061585478	0.049795056	0.84754091	0.15692061	-0.12454937	0.82351226	0.091152081	-0.032136717	0.75379969	0.14032383	-0.16792881	0.75088727	0.041972254	0.0039714783	1.0272338	0.47472741	-0.20392944	0.87971369	0.46047737	0.095398585	1.044087	0.44207543	-0.085915989	0.88718567	0.46297553	-0.033309487	0.92974828	0.84386681	-0.23266254	0.89676738	0.87626201	0.14942971	0.97688232	0.95592826	-0.16488752	0.97414072	0.96475697	0.079353774	0.7738733	0.97825857	-0.056429338	0.90966054	1.4380599	-0.19237265	0.87281322	1.4302917	0.12941307	0.81107399	1.4600466	-0.042998663	0.80816212	1.1134472	-0.27477433	0.81305704	1.0787603	0.18966682	0.9392937	0.91210407	-0.32339395	0.99223195	0.93336297	0.28076839
388	1.548	0.9514856	0.062955238	-0.17966182	0.94511032	0.038358266	0.0039447536	0.84266487	0.14026435	-0.20892164	0.80282083	0.06175509	0.049649292	0.86254359	0.15326613	-0.12423405	0.82376036	0.09132543	-0.032263273	0.76857844	0.13428629	-0.16705127	0.75121503	0.042180056	0.0040438225	1.035043	0.47516335	-0.20367449	0.88113961	0.46046803	0.095434164	1.051945	0.44282524	-0.085638289	0.88919551	0.46292797	-0.033282999	0.93554524	0.84370154	-0.23277988	0.8996268	0.87602406	0.14931959	0.98242658	0.95577711	-0.16466694	0.97790579	0.96466141	0.080036327	0.77835046	0.97784807	-0.057642274	0.91415687	1.4377193	-0.1926075	0.87745346	1.4301172	0.12925303	0.81562566	1.4598464	-0.043161072	0.8118577	1.1133318	-0.27430305	0.82079838	1.0782155	0.19105581	0.94124441	0.91108693	-0.32358258	1.0020378	0.93466807	0.28080317
389	1.552	0.96869436	0.061908452	-0.17969598	0.94506794	0.038330792	0.0039899841	0.85764993	0.13608358	-0.20849962	0.80282083	0.061901812	0.049498632	0.87843546	0.14967538	-0.12418106	0.82399049	0.091491196	-0.032338362	0.78387846	0.12821411	-0.16618817	0.75165254	0.042250889	0.0042156443	1.0427059	0.47550928	-0.20341354	0.88255671	0.46043605	0.095444079	1.059699	0.44348852	-0.085377199	0.891242	0.46285458	-0.033244502	0.94128595	0.84350265	-0.23288364	0.90248863	0.87575966	0.14919244	0.98786475	0.95557188	-0.16440285	0.98165571	0.96452304	0.080705387	0.78301596	0.97738026	-0.058094668	0.91865595	1.4373331	-0.19285185	0.8820977	1.4298807	0.12909371	0.82017497	1.4595864	-0.043337666	0.81557801	1.1131794	-0.27382996	0.82841509	1.0776127	0.19233547	0.94316199	0.91004682	-0.32375066	1.011837	0.93593723	0.28079597
390	1.556	0.98584212	0.060923765	-0.17981241	0.94501815	0.038321453	0.0040393186	0.87273932	0.13193919	-0.20807157	0.80283839	0.062025826	0.049339723	0.89509254	0.14613146	-0.12436766	0.82422698	0.091635249	-0.032384603	0.79970274	0.12211535	-0.16532629	0.75205268	0.04224114	0.0043111803	1.0502445	0.4757718	-0.20314809	0.88396446	0.46038662	0.09543183	1.0673567	0.44405745	-0.085131847	0.89330675	0.46275117	-0.033203869	0.94697922	0.84327477	-0.23297159	0.90533226	0.87546491	0.14905449	0.99315983	0.95530387	-0.16407603	0.98539258	0.96433956	0.081353525	0.78802413	0.97692718	-0.057170896	0.92315187	1.4369075	-0.19311253	0.88675016	1.4295796	0.12893821	0.82471509	1.4592686	-0.043533189	0.81932208	1.1129897	-0.27335013	0.83588169	1.076951	0.19344146	0.94504713	0.90898296	-0.32390015	1.0216075	0.93716773	0.28074881
391	1.56	1.0029346	0.060019185	-0.1800086	0.94499695	0.038331328	0.0040744917	0.8879305	0.1278611	-0.2076169	0.80285173	0.062132999	0.049171948	0.91169521	0.14253665	-0.12452433	0.824416	0.09174436	-0.032460229	0.81585331	0.11603213	-0.16443741	0.75229147	0.042255837	0.0042336374	1.0576773	0.47595396	-0.20288698	0.88536892	0.46032351	0.095410518	1.0749149	0.44452295	-0.084896415	0.89537448	0.46261504	-0.033175211	0.95262784	0.84301628	-0.23304156	0.9081396	0.87513593	0.14890426	0.99835593	0.95497967	-0.16370667	0.98912113	0.96410965	0.081975918	0.79329704	0.97655511	-0.05521253	0.92763636	1.4364538	-0.19339131	0.89141562	1.4292206	0.12878583	0.82924487	1.4589065	-0.043748277	0.82308599	1.1127664	-0.27286514	0.84322347	1.0762883	0.19436331	0.9469497	0.90790459	-0.32404964	1.0313185	0.93835861	0.28066271
392	1.564	1.0200217	0.059225311	-0.18024726	0.94498812	0.03834875	0.0041002528	0.90323205	0.12387844	-0.20712589	0.80283983	0.06223022	0.049003464	0.92743504	0.13881354	-0.12436268	0.82445821	0.091821067	-0.032615352	0.83207606	0.11003535	-0.16351225	0.7523589	0.042336286	0.0040113357	1.0650166	0.47605794	-0.20262936	0.88678072	0.46024186	0.09539151	1.082372	0.44487977	-0.084660507	0.8974558	0.46244187	-0.03315452	0.95823182	0.8427248	-0.23309286	0.91092141	0.87477657	0.14873049	1.003524	0.95461517	-0.16332415	0.99284966	0.96383223	0.082567288	0.79853564	0.97623242	-0.053541998	0.9321076	1.4359752	-0.19368366	0.89609674	1.4288117	0.12863427	0.83377051	1.4585118	-0.043976155	0.82686465	1.1125125	-0.27238618	0.85055734	1.0756722	0.19521196	0.94893002	0.9068246	-0.3242188	1.040968	0.93950782	0.28053193
393	1.568	1.0371485	0.058558319	-0.18048484	0.94497361	0.03837204	0.0041335288	0.9186479	0.12000373	-0.20660306	0.80279358	0.062318884	0.048846481	0.94238755	0.13504013	-0.12387902	0.8243662	0.091876677	-0.032833088	0.84824402	0.10416282	-0.1625783	0.75230849	0.042451068	0.0037131124	1.0722631	0.47608719	-0.20236724	0.88821269	0.46013571	0.095376197	1.089729	0.44512785	-0.084414415	0.8995766	0.46222384	-0.033125901	0.9637925	0.84240255	-0.23312405	0.91377243	0.87441849	0.1485048	1.0087017	0.95422099	-0.16294406	0.99658719	0.96350649	0.083119437	0.80353495	0.97582277	-0.05312521	0.93656824	1.4354644	-0.1939846	0.90079044	1.4283544	0.12848086	0.83830392	1.4580817	-0.044204309	0.830654	1.1122245	-0.27192828	0.85803214	1.0750878	0.19615043	0.95101242	0.90574727	-0.32441508	1.0505806	0.94061125	0.28034623
